<svg xmlns="http://www.w3.org/2000/svg" width="8.445" height="8.445" viewBox="0 0 8.445 8.445"><rect width="8.445" height="8.445" fill="none"/><path d="M6.207,3.04H.507V.507A.253.253,0,0,1,.886.287l.229.131a.758.758,0,0,0,.122.91l.384.384L2.726.606,2.342.222A.76.76,0,0,0,1.273.217L1.011.067a.507.507,0,0,0-.758.44V3.04H.127a.127.127,0,1,0,0,.253H.253V3.8H5.447a.127.127,0,1,1,0,.253H.253v.253a1.266,1.266,0,0,0,.76,1.16v.487a.127.127,0,1,0,.253,0V5.548a1.271,1.271,0,0,0,.253.026H4.814a1.271,1.271,0,0,0,.253-.026v.406a.127.127,0,1,0,.253,0V5.467a1.266,1.266,0,0,0,.76-1.16V3.293h.127a.127.127,0,1,0,0-.253Z" transform="translate(1.056 1.056)"/></svg>