<svg xmlns="http://www.w3.org/2000/svg" width="8.445" height="8.445" viewBox="0 0 8.445 8.445"><rect width="8.445" height="8.445" fill="none"/><g transform="translate(0.704 2.463)"><circle cx="0.704" cy="0.704" r="0.704" transform="translate(4.785 0.281)"/><path d="M.279,1.4c.857,0,3.4.013,3.381,0V.282A.283.283,0,0,0,3.356,0,12.293,12.293,0,0,0,.182.765.281.281,0,0,0,0,1.029v.09A.28.28,0,0,0,.279,1.4Z" transform="translate(0.844 0.29)"/><path d="M6.9,0a.141.141,0,0,0-.141.141V1.97H.281V1.548a.141.141,0,1,0-.281,0V2.815H7.037V.141A.141.141,0,0,0,6.9,0Z" transform="translate(0 0)"/><path d="M0,.281V.422a.141.141,0,1,0,.281,0V.281H6.756V.422a.141.141,0,1,0,.281,0V0H0Z" transform="translate(0 3.096)"/></g></svg>