<svg xmlns="http://www.w3.org/2000/svg" width="13.512" height="13.512" viewBox="0 0 13.512 13.512"><circle cx="6.756" cy="6.756" r="6.756" fill="#fff" opacity="0.73"/><path d="M7,.676A2.024,2.024,0,0,0,5.477,0,1.886,1.886,0,0,0,4.283.421,2.474,2.474,0,0,0,3.8.936,2.473,2.473,0,0,0,3.317.421,1.886,1.886,0,0,0,2.123,0,2.024,2.024,0,0,0,.6.676,2.458,2.458,0,0,0,0,2.334,2.925,2.925,0,0,0,.754,4.226a16.223,16.223,0,0,0,1.887,1.81c.261.228.558.486.866.761a.439.439,0,0,0,.588,0c.308-.275.6-.533.866-.761a16.215,16.215,0,0,0,1.887-1.81A2.925,2.925,0,0,0,7.6,2.334,2.458,2.458,0,0,0,7,.676Z" transform="translate(2.956 3.8)" fill="#fe834c"/></svg>