<svg xmlns="http://www.w3.org/2000/svg" width="8.445" height="8.445" viewBox="0 0 8.445 8.445"><path d="M0,0H8.445V8.445H0Z" fill="none"/><g transform="translate(1.407 1.407)"><path d="M2.145,3.753V2.279a.67.67,0,0,0-.67-.67H0V.4A.4.4,0,0,1,.4,0H3.351a.4.4,0,0,1,.4.4V3.351a.4.4,0,0,1-.4.4Z" transform="translate(1.877 0)" fill="#2e2e2e"/><path d="M.4,3.753a.4.4,0,0,1-.4-.4V.4A.4.4,0,0,1,.4,0H1.609V1.34a.8.8,0,0,0,.8.8H3.753V3.351a.4.4,0,0,1-.4.4ZM2.413,1.877a.536.536,0,0,1-.536-.536V0H3.351a.4.4,0,0,1,.4.4V1.877Z" transform="translate(0 1.877)" fill="#2e2e2e"/></g></svg>